<svg version="1.1" width="1000" height="1000" viewBox="0 0 1000 1000" xmlns="http://www.w3.org/2000/svg"><path transform="matrix(1.00 0.00 0.00 -1.00 0.00 1000.00)" d="m 530,150 v 80 h 250 v 310 h 80 V 150 Z M 140,460 V 850 H 470 V 770 H 220 V 460 Z"/><path transform="matrix(1.00 0.00 0.00 1.00 0.00 880.00)" d="m 20,19.99999 965.2823,-5.69005 c -8.0754,25.99803 -11.6481,54.4116 -10.3204,85.69005 H 20 c 4.266719,-27.14865 4.016552,-53.78705 0,-80 z"/><path transform="matrix(1.00 0.00 0.00 1.00 0.00 0.00)" d="m 20,19.99999 965.2823,-5.69005 c -8.0754,25.99803 -11.6481,54.4116 -10.3204,85.69005 H 20 c 4.266719,-27.14865 4.016552,-53.78705 0,-80 z"/></svg>