<svg version="1.1" width="1000" height="1000" viewBox="0 0 1000 1000" xmlns="http://www.w3.org/2000/svg"><path transform="matrix(-1.00 0.00 0.00 1.00 1000.00 0.00)" d="M 863.56641,144.31055 140,150 c 1.38797,26.21292 1.47442,52.85138 0,80 H 771.33398 L 780,750 c 0,9.99999 -10.00001,20 -20,20 l -603.94922,-4.07617 c 4.8125,27.89823 9.23247,55.8152 6.40234,84.07617 H 780 c 39.99996,0 80,-40.00004 80,-80 L 851.29102,230 H 860 c -0.4588,-31.27842 0.77585,-59.69145 3.56641,-85.68945 z"/><path transform="matrix(1.00 0.00 0.00 1.00 0.00 880.00)" d="m 20,19.99999 965.2823,-5.69005 c -8.0754,25.99803 -11.6481,54.4116 -10.3204,85.69005 H 20 c 4.266719,-27.14865 4.016552,-53.78705 0,-80 z"/><path transform="matrix(1.00 0.00 0.00 1.00 0.00 0.00)" d="m 20,19.99999 965.2823,-5.69005 c -8.0754,25.99803 -11.6481,54.4116 -10.3204,85.69005 H 20 c 4.266719,-27.14865 4.016552,-53.78705 0,-80 z"/></svg>