<svg version="1.1" width="1000" height="1000" viewBox="0 0 1000 1000" xmlns="http://www.w3.org/2000/svg"><g><path transform="translate(0.00 -150.00)" d="M 863.56641,284.31055 140,290 c 1.38797,26.21289 1.47442,52.85141 0,80 H 771.33398 L 775.11523,536.8457 160,540 c 3.02747,25.73672 3.43426,52.27856 0,80 h 616.5 l 3.5,130 c 0,9.99998 -10.00002,20 -20,20 l -603.94922,-4.07617 c 4.8125,27.8982 9.23247,55.81523 6.40234,84.07617 H 780 c 39.99992,0 80,-40.00008 80,-80 L 851.29102,370 H 860 c -0.4588,-31.27839 0.77585,-59.69148 3.56641,-85.68945 z"/><path d="m 140,770 727.78113,-5.69005 C 861.69263,790.30798 858.99898,818.72155 860,850 H 140 c 3.21692,-27.14865 3.0283,-53.78705 0,-80 z"/></g><g><path d="M 20,20 H 980.00001 L 980,980 H 900 V 100 l -880,-1e-5 V 20"/></g></svg>